<svg xmlns="http://www.w3.org/2000/svg" viewBox="0 0 150 150" width="150" height="150" shape-rendering="crispEdges">
  <rect x="50" y="50" width="10" height="10" fill="#808080"/>
  <rect x="80" y="50" width="10" height="10" fill="#808080"/>
  <rect x="20" y="60" width="10" height="10" fill="#808080"/>
  <rect x="40" y="60" width="10" height="10" fill="#808080"/>
  <rect x="50" y="60" width="10" height="10" fill="#808080"/>
  <rect x="60" y="60" width="10" height="10" fill="#808080"/>
  <rect x="70" y="60" width="10" height="10" fill="#808080"/>
  <rect x="80" y="60" width="10" height="10" fill="#808080"/>
  <rect x="90" y="60" width="10" height="10" fill="#808080"/>
  <rect x="110" y="60" width="10" height="10" fill="#808080"/>
  <rect x="20" y="70" width="10" height="10" fill="#808080"/>
  <rect x="30" y="70" width="10" height="10" fill="#808080"/>
  <rect x="40" y="70" width="10" height="10" fill="#808080"/>
  <rect x="60" y="70" width="10" height="10" fill="#808080"/>
  <rect x="70" y="70" width="10" height="10" fill="#808080"/>
  <rect x="90" y="70" width="10" height="10" fill="#808080"/>
  <rect x="100" y="70" width="10" height="10" fill="#808080"/>
  <rect x="110" y="70" width="10" height="10" fill="#808080"/>
  <rect x="20" y="80" width="10" height="10" fill="#808080"/>
  <rect x="40" y="80" width="10" height="10" fill="#808080"/>
  <rect x="50" y="80" width="10" height="10" fill="#808080"/>
  <rect x="60" y="80" width="10" height="10" fill="#808080"/>
  <rect x="70" y="80" width="10" height="10" fill="#808080"/>
  <rect x="80" y="80" width="10" height="10" fill="#808080"/>
  <rect x="90" y="80" width="10" height="10" fill="#808080"/>
  <rect x="110" y="80" width="10" height="10" fill="#808080"/>
  <rect x="50" y="90" width="10" height="10" fill="#808080"/>
  <rect x="80" y="90" width="10" height="10" fill="#808080"/>
  <rect x="40" y="100" width="10" height="10" fill="#808080"/>
  <rect x="70" y="100" width="10" height="10" fill="#808080"/>
</svg>